<?xml version="1.0" encoding="utf-8"?>
<svg width="45px" height="46px" viewBox="0 0 45 46" version="1.1" xmlns:xlink="http://www.w3.org/1999/xlink" xmlns="http://www.w3.org/2000/svg">
  <desc>Created with Lunacy</desc>
  <defs>
    <path d="M22 45C34.1503 45 44 34.9264 44 22.5C44 10.0736 34.1503 0 22 0C9.84973 0 0 10.0736 0 22.5C0 34.9264 9.84973 45 22 45Z" id="path_1" />
    <clipPath id="mask_1">
      <use xlink:href="#path_1" />
    </clipPath>
  </defs>
  <g id="Bitmap" transform="translate(0.5 0.5)">
    <path d="M22 45C34.1503 45 44 34.9264 44 22.5C44 10.0736 34.1503 0 22 0C9.84973 0 0 10.0736 0 22.5C0 34.9264 9.84973 45 22 45Z" id="Mask" fill="#FFFFFF" stroke="#DDDDDD" stroke-width="1" />
    <g clip-path="url(#mask_1)">
      <g id="022-man-4" transform="translate(5.309326 3.285645)">
        <path d="M8.85811 0L0 0L0 0.754945L0 3.77473L0 18.8737L8.85811 18.8737L8.85811 3.77473L8.85811 0Z" transform="translate(11.8108 26.42529)" id="Path" fill="#FEDAC6" stroke="none" />
        <g id="Group" transform="translate(0.668296 30.16943)">
          <path d="M5.12289 0.807764C2.19011 1.20864 0 3.76791 0 6.79451L0 15.0989L11.0726 15.0989L11.0726 0L5.12289 0.807764Z" transform="translate(0.06998459 0.03043492)" id="Path" fill="#DE4C3C" stroke="none" />
          <path d="M11.0725 6.79451C11.0725 3.76791 8.88233 1.20864 5.94964 0.807764L0 0L0 15.099L11.0726 15.099L11.0726 6.79451L11.0725 6.79451Z" transform="translate(20.00071 0.03052339)" id="Path" fill="#DE4C3C" stroke="none" />
        </g>
        <path d="M0 0L0 11.5205L8.85811 11.5205L8.85811 0C6.32465 2.27687 2.53346 2.27687 0 0Z" transform="translate(11.8108 33.77832)" id="Path" fill="#EBEBEB" stroke="none" />
        <path d="M8.85811 0L0 0L0 7.35322C2.53337 9.62938 6.32465 9.62938 8.85811 7.35322L8.85811 0Z" transform="translate(11.8108 26.42529)" id="Path" fill="#FEDAC6" stroke="none" />
        <path d="M2.95267 1.50989C1.86095 1.26677 0.845957 0.747425 0 0L0 11.4979L2.95267 11.4979L2.95267 1.50989Z" transform="translate(11.8108 33.80103)" id="Path" fill="#DBDBDB" stroke="none" />
        <path d="M8.85811 3.01978L8.85811 0L0 0L0 3.01978C3.3218 4.52967 5.53631 4.52967 8.85811 3.01978Z" transform="translate(11.8108 26.42529)" id="Path" fill="#F5C4B0" stroke="none" />
        <path d="M7.97963 1.93929e-07C4.31015 -0.000796069 1.07183 2.45054 0 6.03956L15.9445 6.03956C14.8764 2.45435 11.6447 0.00380456 7.97963 1.93929e-07Z" transform="translate(8.481769 1.511719)" id="Path" fill="#A15D30" stroke="none" />
        <path d="M0.361771 0C0.00302391 1.19431 -0.0907502 2.45585 0.0886663 3.69174L0.199396 4.52976L0.199396 12.0792C0.199396 16.6655 3.83487 20.3837 8.31934 20.3837C12.8038 20.3837 16.4393 16.6656 16.4393 12.0792L16.4393 4.52976L16.4984 4.2731C16.7966 2.85602 16.7301 1.3839 16.3064 8.84736e-05C16.3063 0 0.361771 0 0.361771 0Z" transform="translate(8.119907 7.551514)" id="Path" fill="#FEDAC6" stroke="none" />
        <g id="Group" transform="translate(7.848389 2.211914)">
          <path d="M2.7903 5.28693L2.7903 6.04187L13.1247 6.04187L13.1247 6.04187L15.9445 6.04187C14.6032 1.53856 9.94689 -0.999566 5.54366 0.372217C2.88771 1.19962 0.809018 3.32555 0 6.04187L2.7903 6.04187L2.7903 5.28693Z" transform="translate(0.4339217 0.05272145)" id="Path" fill="#A15D30" stroke="none" />
          <path d="M3.15485 0L0.364546 0C0.00649111 1.19431 -0.0894457 2.45505 0.0840018 3.69174L0.202085 4.52976C0.202171 4.52967 3.15485 3.01978 3.15485 0Z" transform="translate(0.06937598 6.094593)" id="Path" fill="#A15D30" stroke="none" />
          <path d="M2.8198 0L0 0C0 3.01978 2.95267 4.52967 2.95267 4.52967L3.00432 4.27301C3.30035 2.85593 3.23685 1.38532 2.8198 0Z" transform="translate(13.55867 6.094593)" id="Path" fill="#A15D30" stroke="none" />
        </g>
        <path d="M2.95267 11.0524L2.95267 0C2.95267 3.01978 1.91981e-07 4.52967 1.91981e-07 4.52967L1.91981e-07 12.0791C-0.000778376 15.7587 2.36659 19.0005 5.81677 20.0439L3.97874 15.8992C3.30182 14.3772 2.95198 12.7246 2.95267 11.0524Z" transform="translate(8.120152 8.306396)" id="Path" fill="#F5C4B0" stroke="none" />
        <path d="M0.738169 0L0 0L0 4.52967L0.738169 4.52967C1.9613 4.52967 2.95267 3.51576 2.95267 2.26484C2.95267 1.01391 1.9613 0 0.738169 0Z" transform="translate(24.35996 12.83618)" id="Path" fill="#FEDAC6" stroke="none" />
        <path d="M0 2.26484C0 3.51576 0.991376 4.52967 2.21451 4.52967L2.95267 4.52967L2.95267 0L2.21451 0C0.991376 2.51457e-15 0 1.01391 0 2.26484Z" transform="translate(5.167391 12.83618)" id="Path" fill="#F5C4B0" stroke="none" />
        <g id="Group" transform="translate(11.07609 2.265381)">
          <path d="M0 0L1.47634 0L1.47634 6.03956L0 6.03956L0 0Z" transform="translate(4.424867 0)" id="Rectangle" fill="#91542B" stroke="none" />
          <path d="M0.0320057 0.0101203L1.51154 -5.06497e-13L1.47953 4.76447L0 4.77459L0.0320057 0.0101203Z" transform="matrix(-0.9486933 0.3161977 -0.3161977 -0.9486933 2.943748 5.803713)" id="Rectangle" fill="#91542B" stroke="none" />
          <path d="M0.0134944 0.0452566L5.0548 1.69646e-16L5.04131 1.48278L7.01495e-17 1.52803L0.0134944 0.0452566Z" transform="matrix(-0.4472135 0.8944272 -0.8944272 -0.4472135 11.03654 1.857386)" id="Rectangle" fill="#91542B" stroke="none" />
        </g>
        <path d="M13.7447 5.10342C13.5623 5.47634 13.1187 5.62736 12.7541 5.44015C12.6773 5.40087 12.6079 5.34805 12.5489 5.28462C11.5907 4.3138 10.2953 3.77092 8.94661 3.77473L7.33004 3.77473C5.94601 3.77623 4.61872 4.33795 3.6392 5.33744C3.35208 5.63338 2.88477 5.63568 2.5954 5.34274C2.54739 5.29444 2.50604 5.23932 2.4729 5.17889L0 0.611441L0 6.03956C0 10.6259 3.63548 14.344 8.11994 14.344C12.6044 14.344 16.2399 10.6259 16.2399 6.03956L16.2399 0L13.7447 5.10342Z" transform="translate(8.120152 14.34595)" id="Path" fill="#A15D30" stroke="none" />
        <g id="Group" transform="translate(8.107943 0.7077637)">
          <path d="M2.95267 4.92232C2.75111 4.87781 2.57766 4.74944 2.4729 4.56745L0 0L0 5.42812C0.00294126 8.62158 1.79667 11.5304 4.61362 12.9097C3.527 10.8827 2.9557 8.60804 2.95276 6.2964L2.95276 4.92232L2.95267 4.92232Z" transform="translate(0.01202455 14.24965)" id="Path" fill="#8F4F24" stroke="none" />
          <path d="M2.55405 1.00785e-06C1.49995 0.00079727 0.527004 0.57676 0 1.50989L4.51024 5.28462C5.73337 4.18162 5.84998 2.27315 4.77158 1.02214C4.21049 0.371413 3.40295 -0.000706781 2.55405 1.00785e-06Z" transform="translate(10.7451 0.04910184)" id="Path" fill="#8F4F24" stroke="none" />
        </g>
        <g id="Group" transform="translate(0.668296 30.8772)">
          <path d="M0 0L4.42901 0L4.42901 14.344L0 14.344L0 0Z" transform="translate(6.712724 0.07608729)" id="Rectangle" fill="#AD3228" stroke="none" />
          <path d="M2.95276 13.5891L0 13.5891L0 3.01978L2.95276 0L2.95276 13.5891Z" transform="translate(0.06989807 0.8325365)" id="Path" fill="#AD3228" stroke="none" />
          <path d="M0 0L3.69084 0L3.69084 3.77473L0 3.77473L0 0Z" transform="translate(3.021881 4.605758)" id="Rectangle" fill="#AD3228" stroke="none" />
        </g>
        <g id="Group" transform="translate(0.668296 35.47803)">
          <path d="M0 0L3.69084 0L3.69084 3.77473L0 3.77473L0 0Z" transform="translate(6.712724 0.005131469)" id="Rectangle" fill="#7D241D" stroke="none" />
          <path d="M0 0L2.95267 0L2.95267 3.77473L0 3.77473L0 0Z" transform="translate(0.06920601 0.005131469)" id="Rectangle" fill="#7D241D" stroke="none" />
        </g>
        <g id="Group" transform="translate(20.65149 30.8772)">
          <path d="M0 0L4.42901 0L4.42901 14.344L0 14.344L0 0Z" transform="translate(0.01660944 0.07608729)" id="Rectangle" fill="#AD3228" stroke="none" />
          <path d="M0 13.5891L2.95276 13.5891L2.95276 3.01978L0 0L0 13.5891Z" transform="translate(8.137243 0.8325365)" id="Path" fill="#AD3228" stroke="none" />
          <path d="M0 0L3.69084 0L3.69084 3.77473L0 3.77473L0 0Z" transform="translate(4.445708 4.605758)" id="Rectangle" fill="#AD3228" stroke="none" />
        </g>
        <g id="Group" transform="translate(0.668296 35.47803)">
          <path d="M0 0L3.69084 0L3.69084 3.77473L0 3.77473L0 0Z" transform="translate(20.73801 0.005131469)" id="Rectangle" fill="#7D241D" stroke="none" />
          <path d="M0 0L2.95267 0L2.95267 3.77473L0 3.77473L0 0Z" transform="translate(28.11979 0.005131469)" id="Rectangle" fill="#7D241D" stroke="none" />
        </g>
        <path d="M0.662907 5.20464L0.00224919 3.854L0.332189 4.52967L0 3.8555C0.0258657 3.84188 2.54669 2.50336 2.54669 0L4.02303 0C4.02381 3.4464 0.800194 5.13439 0.662907 5.20464Z" transform="translate(7.787102 8.307129)" id="Path" fill="#000000" stroke="none" />
        <path d="M3.3609 5.20534C3.22362 5.1351 0 3.44711 0 0L1.47634 0C1.47634 2.50345 3.99717 3.84197 4.02303 3.8555L3.3609 5.20534Z" transform="translate(20.66908 8.306396)" id="Path" fill="#000000" stroke="none" />
        <path d="M0 0L14.7635 0L14.7635 1.50989L0 1.50989L0 0Z" transform="translate(8.857548 7.550049)" id="Rectangle" fill="#000000" stroke="none" />
        <path d="M5.63882 6.607L4.66146 5.47604C4.84157 5.31298 4.99365 5.12197 5.11398 4.9091C5.72446 3.82804 5.3613 2.43963 4.30349 1.81536C3.24568 1.1918 1.88889 1.56241 1.27849 2.64427L0 1.88932C0.493093 1.01582 1.28888 0.391463 2.24106 0.130289C3.19403 -0.130885 4.18913 0.00341793 5.04166 0.507806C6.80442 1.54887 7.40971 3.86202 6.39256 5.66484C6.19247 6.01962 5.93848 6.33671 5.63882 6.607Z" transform="translate(18.21394 0)" id="Path" fill="#000000" stroke="none" />
        <path d="M1.47634 3.01978C2.2917 3.01978 2.95267 2.34378 2.95267 1.50989C2.95267 0.676001 2.2917 0 1.47634 0C0.660979 0 0 0.676001 0 1.50989C0 2.34378 0.660979 3.01978 1.47634 3.01978Z" transform="translate(10.33381 12.83472)" id="Oval" fill="#000000" stroke="none" />
        <path d="M1.47634 3.01978C2.2917 3.01978 2.95267 2.34378 2.95267 1.50989C2.95267 0.676001 2.2917 0 1.47634 0C0.660979 0 0 0.676001 0 1.50989C0 2.34378 0.660979 3.01978 1.47634 3.01978Z" transform="translate(19.19184 12.83472)" id="Oval" fill="#000000" stroke="none" />
        <path d="M2.95257 5.52394L0.738063 5.52394C0.501119 5.52394 0.278189 5.40768 0.139431 5.20986C0.000672818 5.01283 -0.0369579 4.75988 0.037525 4.52967L1.51386 0L2.91416 0.477846L1.7611 4.01405L2.95179 4.01405L2.95179 5.52394L2.95257 5.52394Z" transform="translate(14.02567 13.35181)" id="Path" fill="#000000" stroke="none" />
        <path d="M0.125522 2.7993L0 2.7993L0 1.28941L0.125522 1.28941C1.27486 1.28862 2.35551 0.831121 3.16903 0L4.21283 1.06823C3.12024 2.18397 1.66899 2.79851 0.125522 2.7993Z" transform="translate(14.76429 19.85107)" id="Path" fill="#000000" stroke="none" />
        <path d="M0.738169 6.03956L0 6.03956L0 4.52967L0.738169 4.52967C1.55238 4.52967 2.21451 3.85249 2.21451 3.01978C2.21451 2.18707 1.55238 1.50989 0.738169 1.50989L0 1.50989L0 0L0.738169 0C2.36659 0 3.69084 1.35435 3.69084 3.01978C3.69084 4.68521 2.36659 6.03956 0.738169 6.03956Z" transform="translate(24.35996 12.08105)" id="Path" fill="#000000" stroke="none" />
        <path d="M3.69084 6.03956L2.95267 6.03956C1.32426 6.03956 0 4.68521 0 3.01978C0 1.35435 1.32426 0 2.95267 0L3.69084 0L3.69084 1.50989L2.95267 1.50989C2.13847 1.50989 1.47634 2.18707 1.47634 3.01978C1.47634 3.85249 2.13847 4.52967 2.95267 4.52967L3.69084 4.52967L3.69084 6.03956Z" transform="translate(4.429262 12.08105)" id="Path" fill="#000000" stroke="none" />
        <path d="M3.75806 6.6564C3.62665 6.6564 3.49456 6.63826 3.36384 6.60128C2.98364 6.49405 2.66703 6.24119 2.47213 5.89084L0 1.4691L1.28144 0.720175L3.75434 5.14421C4.88447 3.99441 6.38002 3.36102 7.97002 3.35952L9.60138 3.35952C11.1508 3.35952 12.6087 3.97326 13.7086 5.08838L16.2206 0L17.5382 0.680185L15.0284 5.76857C14.9583 5.91128 14.8661 6.04266 14.7545 6.15661C14.477 6.44123 14.1064 6.59898 13.7122 6.59978C13.7114 6.59978 13.7107 6.59978 13.71 6.59978C13.3165 6.59978 12.9459 6.44353 12.6676 6.15962C11.8482 5.32921 10.758 4.87021 9.6013 4.87021L7.97063 4.87021C6.77406 4.871 5.64834 5.34805 4.80091 6.21253C4.70938 6.30693 4.60237 6.39071 4.48567 6.45937C4.25998 6.58916 4.01049 6.6564 3.75806 6.6564Z" transform="translate(7.478714 14.00708)" id="Path" fill="#000000" stroke="none" />
        <path d="M0.200842 18.8739C0.200842 23.8695 4.17448 27.9333 9.05895 27.9333C13.9434 27.9333 17.917 23.8695 17.9176 18.8732L17.9176 11.4014L17.9531 11.2262C19.002 6.22394 15.8781 1.28057 10.9869 0.207031C10.3528 0.0673315 9.68778 -0.00282806 9.0574 0.000180042C4.05043 0.0130087 -0.0124858 4.1887 5.77965e-05 9.30946C0.000749857 9.73679 0.0310275 10.1685 0.0901121 10.5929L0.0901121 10.5944L0.200842 11.3788L0.200842 18.8739ZM1.66974 11.2165L1.55166 10.3808C1.50226 10.0252 1.47717 9.66353 1.477 9.30424C1.46662 5.0169 4.86887 1.51989 9.06172 1.50936C9.58803 1.50556 10.1468 1.56599 10.6768 1.68224C14.7715 2.58219 17.3876 6.72081 16.5077 10.9145L16.456 11.1712C16.4457 11.2218 16.4406 11.2731 16.4406 11.3244L16.4406 18.8739C16.4406 23.0374 13.129 26.4234 9.05878 26.4234C4.98851 26.4234 1.67709 23.0367 1.67709 18.8739L1.67709 11.3244C1.67709 11.2883 1.67493 11.252 1.66974 11.2165Z" transform="translate(7.181069 1.511719)" id="Shape" fill="#000000" fill-rule="evenodd" stroke="none" />
        <path d="M1.47642 18.1187L0 18.1187L0 9.81429C0 6.4246 2.47732 3.5293 5.76365 3.07941L11.0726 2.35844L11.0726 0L12.549 0L12.549 3.01978C12.549 3.39801 12.2751 3.7181 11.9082 3.76791L5.95855 4.57568C3.40372 4.92524 1.47634 7.17645 1.47634 9.81349L1.47642 18.1187L1.47642 18.1187Z" transform="translate(0 27.18018)" id="Path" fill="#000000" stroke="none" />
        <path d="M12.549 18.1181L11.0726 18.1181L11.0726 9.81367C11.0726 7.17663 9.14601 4.92462 6.58971 4.57585L0.640761 3.76809C0.273883 3.71828 0 3.39818 0 3.01996L0 0L1.47634 0L1.47634 2.35844L6.78453 3.07941C10.0709 3.52859 12.549 6.4246 12.549 9.81429L12.549 18.1181Z" transform="translate(19.93095 27.18091)" id="Path" fill="#000000" stroke="none" />
        <path d="M4.91916 3.0281C4.91691 3.0281 4.91475 3.0281 4.9125 3.0281C3.10475 3.0281 1.35964 2.35543 0 1.13397L0.973642 0C2.0639 0.979138 3.46272 1.51821 4.9125 1.51821C4.91397 1.51821 4.91622 1.51821 4.91769 1.51821C6.36894 1.51821 7.76708 0.979138 8.85733 0L9.83175 1.13397C8.47272 2.35552 6.72769 3.0281 4.91916 3.0281Z" transform="translate(11.32368 33.21143)" id="Path" fill="#000000" stroke="none" />
        <path d="M0 0L1.47634 0L1.47634 15.099L0 15.099L0 0Z" transform="translate(11.07193 30.19849)" id="Rectangle" fill="#000000" stroke="none" />
        <path d="M0 0L1.47634 0L1.47634 15.099L0 15.099L0 0Z" transform="translate(19.92997 30.19849)" id="Rectangle" fill="#000000" stroke="none" />
        <path d="M5.16737 9.25797L0.738359 9.25797C0.508076 9.25797 0.291807 9.14773 0.151492 8.96131C0.0119555 8.7741 -0.034499 8.53098 0.0259697 8.30449L2.24048 0L3.66517 0.396362L1.70456 7.74728L5.16737 7.74728L5.16737 9.25797L5.16737 9.25797Z" transform="translate(6.643405 30.00146)" id="Path" fill="#000000" stroke="none" />
        <path d="M4.42901 9.25717L0 9.25717L0 7.74728L3.46203 7.74728L1.5022 0.396362L2.9269 0L5.1414 8.30448C5.20196 8.53098 5.15619 8.7741 5.01588 8.96131C4.87634 9.14693 4.65929 9.25717 4.42901 9.25717Z" transform="translate(20.66908 30.0022)" id="Path" fill="#000000" stroke="none" />
        <path d="M0 1.13246C0 1.75682 0.496813 2.26492 1.1073 2.26492C1.71769 2.26492 2.21451 1.75682 2.21459 1.13246C2.21459 0.508104 1.71778 0 1.1073 0C0.496813 0 0 0.508104 0 1.13246ZM0.738169 1.13255C0.738169 0.924903 0.903571 0.755034 1.1073 0.755034C1.31102 0.755034 1.47634 0.924903 1.47642 1.13255C1.47642 1.3402 1.31102 1.51007 1.1073 1.51007C0.903485 1.51007 0.738169 1.3402 0.738169 1.13255Z" transform="translate(8.120152 40.76904)" id="Shape" fill="#000000" fill-rule="evenodd" stroke="none" />
      </g>
    </g>
  </g>
</svg>