<?xml version="1.0" encoding="utf-8"?>
<svg width="51px" height="51px" viewBox="0 0 51 51" version="1.1" xmlns:xlink="http://www.w3.org/1999/xlink" xmlns="http://www.w3.org/2000/svg">
  <path d="M40.5455 14.0309L29.2916 14.0309C29.004 14.0295 28.7518 13.8386 28.6726 13.5623L25.2777 2.43606C24.8291 0.987581 23.489 0 21.9719 0C20.4548 0 19.1146 0.987581 18.6661 2.43606L15.2524 13.5716C15.1732 13.848 14.921 14.0389 14.6334 14.0403L3.37951 14.0403C1.91404 14.0824 0.632225 15.0382 0.174286 16.4302C-0.283653 17.8221 0.180556 19.3517 1.33506 20.2548L10.6008 27.388C10.8201 27.5616 10.9096 27.8523 10.8258 28.1191L7.29024 39.5265C6.84279 40.9649 7.38097 42.5272 8.61959 43.3854C9.8582 44.2436 11.5108 44.1993 12.7015 43.2758L21.5827 36.4427C21.8121 36.266 22.1317 36.266 22.3611 36.4427L31.2423 43.2758C32.4355 44.185 34.0789 44.2222 35.312 43.3678C36.545 42.5134 37.0868 40.9622 36.6535 39.5265L33.1461 28.1191C33.0623 27.8523 33.1518 27.5616 33.3712 27.388L42.5993 20.2548C43.8052 19.367 44.2981 17.8017 43.8185 16.3836C43.3568 14.9705 42.0328 14.0187 40.5455 14.0309Z" transform="translate(3.319824 3.319946)" id="Path" fill="#006EE8" stroke="#021431" stroke-width="2" />
</svg>