<?xml version="1.0" encoding="utf-8"?>
<svg width="46px" height="46px" viewBox="0 0 46 46" version="1.1" xmlns:xlink="http://www.w3.org/1999/xlink" xmlns="http://www.w3.org/2000/svg">
  <desc>Created with Lunacy</desc>
  <defs>
    <path d="M22.5 45C34.9264 45 45 34.9264 45 22.5C45 10.0736 34.9264 0 22.5 0C10.0736 0 0 10.0736 0 22.5C0 34.9264 10.0736 45 22.5 45Z" id="path_1" />
    <clipPath id="mask_1">
      <use xlink:href="#path_1" />
    </clipPath>
  </defs>
  <g id="023-man-3" transform="translate(0.5 0.5)">
    <path d="M22.5 45C34.9264 45 45 34.9264 45 22.5C45 10.0736 34.9264 0 22.5 0C10.0736 0 0 10.0736 0 22.5C0 34.9264 10.0736 45 22.5 45Z" id="Mask" fill="#FFFFFF" stroke="#DDDDDD" stroke-width="1" />
    <g clip-path="url(#mask_1)">
      <g id="023-man-3" transform="translate(6 3)">
        <path d="M5.18184 0.813228C2.21533 1.21677 0 3.79316 0 6.83999L0 15.2L11.2 15.2L11.2 0L5.18184 0.813228Z" transform="translate(0.8 30)" id="Path" fill="#2E6AA3" stroke="none" />
        <path d="M0 5.25179L0 13.6L3.2 13.6L3.2 0C1.22157 1.08378 0.00243752 3.08503 0 5.25179Z" transform="translate(0.8 31.6)" id="Path" fill="#245E8F" stroke="none" />
        <path d="M11.2 6.83999C11.2 3.79316 8.98468 1.21677 6.01816 0.813228L0 0L0 15.2L11.2 15.2L11.2 6.83999Z" transform="translate(21.2 30)" id="Path" fill="#2E6AA3" stroke="none" />
        <path d="M0 0L0 11.6L9.2 11.6L9.2 0C6.56884 2.29187 2.63116 2.29187 0 0Z" transform="translate(12 33.6)" id="Path" fill="#EBEBEB" stroke="none" />
        <path d="M9.2 0L0 0L0 7.46656C2.63116 9.77781 6.56884 9.77781 9.2 7.46656L9.2 0L9.2 0Z" transform="translate(12 26.4)" id="Path" fill="#FEDAC6" stroke="none" />
        <path d="M3.2 1.52333C2.01677 1.27806 0.91679 0.754036 0 0L0 11.6L3.2 11.6L3.2 1.52333Z" transform="translate(12 33.6)" id="Path" fill="#DBDBDB" stroke="none" />
        <path d="M9.2 4.20096L9.2 0L0 0L0 4.20096C2.77689 6.06635 6.42311 6.06635 9.2 4.20096Z" transform="translate(12 26.4)" id="Path" fill="#F5C4B0" stroke="none" />
        <path d="M0 0L3.2 0L3.2 3.6L0 3.6L0 0Z" transform="translate(3.6 41.6)" id="Rectangle" fill="#FEDAC6" stroke="none" />
        <path d="M0 0L3.2 0L3.2 3.6L0 3.6L0 0Z" transform="translate(0.8 41.6)" id="Rectangle" fill="#F5C4B0" stroke="none" />
        <g id="Group" transform="translate(24.4 12.8)">
          <path d="M0 0L6.06147 0L6.06147 3.78992L0 3.78992L0 0Z" transform="translate(2.302609 28.80909)" id="Rectangle" fill="#FEDAC6" stroke="none" />
          <path d="M1.51539 0L0 0L0 4.54787L1.51539 4.54787C2.77089 4.54787 3.78843 3.52993 3.78843 2.27394C3.78843 1.01794 2.77089 0 1.51539 0Z" transform="translate(0.02956731 0.005951319)" id="Path" fill="#FEDAC6" stroke="none" />
        </g>
        <path d="M2.15998 0C0.96693 0 0 0.984844 0 2.2C0 3.41516 0.96693 4.4 2.15998 4.4L3.6 4.4L3.6 0L2.15998 0Z" transform="translate(5.6 12.8)" id="Path" fill="#F5C4B0" stroke="none" />
        <path d="M15.2727 0C14.0089 1.25461 11.9593 1.25612 10.6939 0.00301674C10.6924 0.00150837 10.6916 0.000709821 10.6909 0L10.6909 0C9.42706 1.25461 7.37751 1.25612 6.11214 0.00301674C6.11062 0.00150837 6.10981 0.000709821 6.1091 0L6.1091 0C4.84526 1.25461 2.7957 1.25612 1.53034 0.00301674C1.52882 0.00150837 1.52801 0.000709821 1.5273 0L0 4.54286L0.656755 13.6286C0.727003 14.6166 1.12102 15.5555 1.7793 16.3013L4.5818 19.4889C5.54479 20.5806 6.93767 21.2053 8.4 21.2L8.4 21.2C9.86233 21.2053 11.2552 20.5806 12.2182 19.4889L15.036 16.2937C15.6874 15.5479 16.076 14.6128 16.1432 13.6286L16.8 4.54286L15.2727 0Z" transform="translate(8.4 8.4)" id="Path" fill="#FEDAC6" stroke="none" />
        <path d="M4.46095 11.925L4.46095 0.84043C3.39328 1.1122 2.26472 0.792694 1.48701 0L0 4.54286L0.639432 13.6286C0.707827 14.6167 1.09145 15.5555 1.73236 16.3013L4.46095 19.4889C5.35758 20.5337 6.63863 21.1531 8 21.2L5.59109 16.5738C4.84762 15.1413 4.45947 13.5453 4.46095 11.925Z" transform="translate(8.4 8.4)" id="Path" fill="#F5C4B0" stroke="none" />
        <path d="M24.4 10.6603C24.3939 9.69702 23.7829 8.8419 22.8726 8.52057C23.7966 7.65858 23.8448 6.21257 22.9802 5.29204C22.5556 4.83972 21.9661 4.57934 21.3452 4.56863L21.2001 4.56863C21.2933 4.32574 21.3421 4.06759 21.3452 3.80721C21.3437 2.54545 20.3172 1.52365 19.0518 1.52517C18.7593 1.52517 18.4699 1.58147 18.1987 1.69043C17.9307 0.697533 17.0303 0.00606783 15.9993 0C15.2302 0.00151696 14.5131 0.387538 14.0901 1.02796C13.3905 -0.0236467 11.9685 -0.310709 10.9146 0.386824C10.6595 0.555831 10.4411 0.773648 10.2716 1.02796C9.84853 0.387538 9.1314 0.00151696 8.36237 0C7.33139 0.00606783 6.43098 0.697533 6.16294 1.69043C4.98912 1.2191 3.65421 1.78635 3.18221 2.95673C3.07303 3.22702 3.01647 3.51559 3.01647 3.8073C3.01951 4.06768 3.06837 4.32583 3.16154 4.56872L3.01665 4.56872C1.75118 4.59005 0.743109 5.62943 0.763783 6.89038C0.774433 7.50948 1.03567 8.09725 1.48932 8.52066C0.304046 8.96228 -0.29772 10.2788 0.145998 11.4606C0.378148 12.0797 0.868492 12.5685 1.48932 12.8C1.90404 12.4125 2.44853 12.1931 3.01673 12.1832L3.7804 12.1832L5.30781 7.6145C6.57175 8.87626 8.62146 8.87777 9.88692 7.61754C9.88844 7.61602 9.88925 7.61522 9.88997 7.6145C11.1539 8.87626 13.2036 8.87777 14.4691 7.61754C14.4706 7.61602 14.4714 7.61522 14.4721 7.6145C15.7361 8.87626 17.7858 8.87777 19.0512 7.61754C19.0528 7.61602 19.0536 7.61522 19.0543 7.6145L20.5817 12.1832L21.3454 12.1832C21.9136 12.1931 22.458 12.4125 22.8728 12.8C23.7829 12.4787 24.3939 11.6236 24.4 10.6603Z" transform="translate(4.4 0.8)" id="Path" fill="#A15D30" stroke="none" />
        <path d="M8.24539 0C7.22884 0.00606783 6.34103 0.697533 6.07675 1.69043C4.91936 1.2191 3.60314 1.78635 3.13775 2.95673C3.03009 3.22702 2.97433 3.51559 2.97433 3.8073C2.97733 4.06768 3.02551 4.32583 3.11737 4.56872L2.97441 4.56872C1.72667 4.59005 0.732706 5.62943 0.75309 6.89038C0.763591 7.50948 1.02117 8.09725 1.46847 8.52066C0.29979 8.96228 -0.293552 10.2788 0.143954 11.4606C0.372854 12.0797 0.856334 12.5685 1.46847 12.8C1.87739 12.4125 2.41425 12.1931 2.9745 12.1832L3.72747 12.1832L5.2335 7.6145C6.00607 8.39502 7.12057 8.7201 8.1853 8.47497C8.14091 5.82208 8.76584 3.20194 10 0.860472C9.5737 0.31981 8.92918 0.00383701 8.24539 0Z" transform="translate(4.8 0.8)" id="Path" fill="#8F4F24" stroke="none" />
        <path d="M3.2 6L0.799497 6C0.567417 6 0.347434 5.90716 0.195339 5.74576C0.0433385 5.58436 -0.0247382 5.36993 0.00808114 5.15844L0.808218 0L2.39171 0.208555L1.722 4.52621L3.19991 4.52621L3.19991 6L3.2 6Z" transform="translate(14.4 13.6)" id="Path" fill="#000000" stroke="none" />
        <path d="M0.131097 2.8L0 2.8L0 1.28974L0.131097 1.28974C1.33147 1.28894 2.46021 0.831363 3.30985 0L4.4 1.06852C3.2597 2.18455 1.74401 2.7992 0.131097 2.8Z" transform="translate(15.2 20)" id="Path" fill="#000000" stroke="none" />
        <path d="M0.719983 6L0 6L0 4.5L0.719983 4.5C1.51413 4.5 2.16003 3.8273 2.16003 3C2.16003 2.17279 1.51422 1.5 0.719983 1.5L0 1.5L0 0L0.719983 0C2.30837 0 3.6 1.34549 3.6 2.99991C3.6 4.65433 2.30837 6 0.719983 6Z" transform="translate(25.2 12)" id="Path" fill="#000000" stroke="none" />
        <path d="M3.6 6L2.88002 6C1.29163 6 0 4.65447 0 3C0 1.34553 1.29172 0 2.88002 0L3.6 0L3.6 1.49996L2.88002 1.49996C2.08587 1.49996 1.43997 2.17268 1.43997 3C1.43997 3.82723 2.08578 4.50004 2.88002 4.50004L3.6 4.50004L3.6 6L3.6 6Z" transform="translate(4.8 12)" id="Path" fill="#000000" stroke="none" />
        <path d="M1.98711 14C1.14569 13.6979 0.48744 13.0467 0.181375 12.2137C-0.271007 10.9815 0.151246 9.64269 1.13217 8.86547C0.90828 8.45003 0.782373 7.98389 0.774067 7.50796C0.76046 6.71134 1.06211 5.95658 1.62228 5.38451C2.00681 4.99144 2.48102 4.7162 3.00126 4.57748C2.99896 4.54619 2.99825 4.51481 2.99825 4.48352C2.99825 4.09273 3.07212 3.71898 3.21614 3.36472C3.51699 2.62482 4.09077 2.04531 4.8319 1.73275C5.33854 1.51869 5.88369 1.44859 6.41524 1.51939C6.93849 0.604941 7.92843 0.00594365 9.02545 0C9.72744 0.00148591 10.3901 0.238707 10.9172 0.658609C10.9865 0.604154 11.0582 0.551973 11.1328 0.503462C11.8046 0.0626705 12.6091 -0.0932628 13.3985 0.0656423C13.8758 0.16109 14.3138 0.364748 14.684 0.657822C15.2103 0.237921 15.8715 0.00148591 16.5689 0C17.6713 0.00594365 18.6627 0.604941 19.1859 1.52009C19.3172 1.50296 19.4499 1.49395 19.5833 1.49395C19.5841 1.49395 19.5848 1.49395 19.5856 1.49395C21.2473 1.49395 22.5999 2.83057 22.6022 4.47443C22.6014 4.51027 22.6007 4.54532 22.5992 4.58107C23.1376 4.72572 23.6292 5.01591 24.0121 5.42017C24.5625 6.00195 24.8513 6.76125 24.8249 7.55787C24.8091 8.02331 24.6869 8.46935 24.4705 8.86766C24.8973 9.20557 25.2275 9.65607 25.419 10.1774C25.986 11.7244 25.1762 13.4391 23.6125 14L23.0983 12.5977C23.8794 12.3172 24.2843 11.4595 24.0007 10.6861C23.8484 10.2698 23.5182 9.9439 23.0975 9.7933C22.8517 9.70458 22.6692 9.49568 22.6165 9.24211C22.5637 8.98776 22.6481 8.72519 22.8396 8.54766C23.1345 8.27539 23.3033 7.90619 23.3169 7.50796C23.3306 7.10965 23.1857 6.73004 22.9106 6.43916C22.6332 6.14599 22.2403 5.97372 21.8347 5.96699L21.7043 5.96699C21.4563 5.96699 21.224 5.84619 21.0837 5.64402C20.942 5.44185 20.9111 5.18382 21.0008 4.95482C21.0611 4.79897 21.0921 4.63412 21.0943 4.467C21.0935 3.65403 20.4172 2.98572 19.5863 2.98572C19.5855 2.98572 19.5855 2.98572 19.5848 2.98572C19.3917 2.98572 19.2026 3.02226 19.0231 3.09384C18.8225 3.17365 18.5986 3.16473 18.4056 3.06919C18.2125 2.97366 18.0701 2.80147 18.0136 2.59554C17.8386 1.9496 17.243 1.49535 16.5659 1.49168C16.0638 1.49247 15.5941 1.74376 15.3151 2.16296C15.1756 2.37178 14.9404 2.4986 14.687 2.4986C14.6862 2.4986 14.6862 2.4986 14.6855 2.4986C14.4329 2.4986 14.1969 2.37326 14.0575 2.16524C13.8343 1.83335 13.4943 1.60662 13.0992 1.52752C12.7057 1.44999 12.3022 1.52673 11.9667 1.74603C11.7979 1.85713 11.6554 1.99811 11.543 2.16524C11.4035 2.37335 11.1675 2.4986 10.9149 2.4986C10.9149 2.4986 10.9142 2.4986 10.9134 2.4986C10.6601 2.4986 10.4241 2.37178 10.2854 2.16296C10.0065 1.74376 9.53668 1.49317 9.02855 1.49168C8.35748 1.49544 7.76267 1.9496 7.58693 2.59554C7.53038 2.80138 7.38787 2.97366 7.1949 3.06919C7.00184 3.16394 6.77724 3.17286 6.57667 3.09384C6.20266 2.94543 5.7933 2.94919 5.4223 3.10503C5.05209 3.26088 4.76484 3.55107 4.61481 3.92097C4.54316 4.09771 4.50622 4.28493 4.50622 4.47592C4.50773 4.63482 4.53936 4.79888 4.5997 4.95473C4.68868 5.18373 4.65705 5.44176 4.51674 5.64393C4.37652 5.8461 4.14352 5.9669 3.89551 5.9669L3.75219 5.9669C3.36166 5.97363 2.98615 6.13472 2.70571 6.42115C2.42597 6.70758 2.27515 7.085 2.28195 7.48323C2.28875 7.88521 2.4629 8.27312 2.75925 8.54758C2.95072 8.72431 3.03518 8.98767 2.98244 9.24202C2.92969 9.49638 2.74723 9.70519 2.50143 9.79321C2.12291 9.92895 1.82056 10.2027 1.64941 10.5637C1.47897 10.9247 1.46095 11.3297 1.59816 11.7041C1.7512 12.121 2.07997 12.4463 2.50143 12.5976L1.98711 14Z" transform="translate(4 0)" id="Path" fill="#000000" stroke="none" />
        <path d="M1.6 3.2C2.48366 3.2 3.2 2.48366 3.2 1.6C3.2 0.716345 2.48366 0 1.6 0C0.716344 0 0 0.716345 0 1.6C0 2.48366 0.716344 3.2 1.6 3.2Z" transform="translate(10.4 13.6)" id="Oval" fill="#000000" stroke="none" />
        <path d="M1.6 3.2C2.48366 3.2 3.2 2.48366 3.2 1.6C3.2 0.716345 2.48366 0 1.6 0C0.716345 0 0 0.716345 0 1.6C0 2.48366 0.716345 3.2 1.6 3.2Z" transform="translate(19.6 13.6)" id="Oval" fill="#000000" stroke="none" />
        <path d="M8.97663 22.8L9.01714 22.8C10.6648 22.8 12.23 22.0803 13.3159 20.8247L16.0855 17.6139C16.8265 16.7468 17.2765 15.638 17.3529 14.4957L17.9979 5.37613C18.0054 5.27656 17.9926 5.17628 17.9612 5.08126L16.4612 0.521459C16.3788 0.271472 16.1755 0.0830238 15.9221 0.0221968C15.6685 -0.0401442 15.4023 0.0381382 15.2193 0.22436C14.2714 1.18423 12.7309 1.18726 11.783 0.226675L11.7822 0.226675C11.6607 0.101281 11.4987 0.0221968 11.324 0.00474128C11.096 -0.0180577 10.8785 0.0632528 10.7195 0.223647C9.77155 1.18503 8.23039 1.18575 7.28017 0.223647C7.1399 0.0807973 6.94866 0.00100082 6.74995 0.00100082C6.55045 0.00100082 6.35992 0.0807973 6.21895 0.222935C5.2733 1.18352 3.73213 1.18584 2.78042 0.222935C2.59665 0.0367133 2.32965 -0.0407677 2.07768 0.0207718C1.82501 0.0815098 1.62103 0.270047 1.5385 0.520034L0.0385589 5.07983C0.00709577 5.17486 -0.00494457 5.27514 0.00182263 5.37471L0.646816 14.4935C0.727056 15.6433 1.1838 16.7551 1.93223 17.6223L4.68534 20.8225C5.76976 22.0803 7.33501 22.8 8.97663 22.8ZM9.01266 21.2801L8.98269 21.2801C7.76776 21.2801 6.61426 20.7497 5.81634 19.8218L3.06323 16.6216C2.52775 16.0014 2.20081 15.2072 2.14377 14.3849L1.50933 5.41656L2.63576 1.99066C3.20192 2.30076 3.83795 2.4649 4.49937 2.4649C5.34615 2.45884 6.09529 2.21491 6.75004 1.74904C8.09698 2.70126 9.90364 2.70206 11.2498 1.74904C12.4707 2.61389 14.0711 2.69289 15.3633 1.98995L16.4905 5.41737L15.8553 14.3888C15.8013 15.2065 15.4796 15.9976 14.9523 16.6147L12.185 19.8225C11.3855 20.7497 10.2321 21.2801 9.01266 21.2801Z" transform="translate(7.6 7.6)" id="Shape" fill="#000000" fill-rule="evenodd" stroke="none" />
        <path d="M1.50582 18L0 18L0 9.74997C0 6.38244 2.52688 3.50622 5.87893 3.05921L11.2941 2.34299L11.2941 0L12.8 0L12.8 2.99997C12.8 3.3757 12.5206 3.69369 12.1464 3.74326L6.07772 4.54579C3.47108 4.89305 1.50591 7.1303 1.50591 9.75006L1.50591 18L1.50582 18Z" transform="translate(0 27.2)" id="Path" fill="#000000" stroke="none" />
        <path d="M12.8 18L11.2941 18L11.2941 9.74997C11.2941 7.13021 9.32892 4.89296 6.72149 4.54649L0.653557 3.74396C0.279352 3.69369 0 3.3757 0 2.99997L0 0L1.50591 0L1.50591 2.34299L6.92028 3.05921C10.2731 3.50543 12.8 6.38244 12.8 9.74997L12.8 18L12.8 18Z" transform="translate(20.4 27.2)" id="Path" fill="#000000" stroke="none" />
        <path d="M5 3.2C3.15843 3.2 1.38285 2.48917 0 1.19831L0.990199 0C2.09979 1.03479 3.52319 1.60444 5 1.60444C6.47681 1.60444 7.90013 1.03479 9.00901 0L10 1.19831C8.61715 2.48917 6.84157 3.2 5 3.2Z" transform="translate(11.6 33.2)" id="Path" fill="#000000" stroke="none" />
        <path d="M0 0L1.6 0L1.6 6L0 6L0 0Z" transform="translate(6 39.2)" id="Rectangle" fill="#000000" stroke="none" />
        <path d="M0 0L6 0L6 1.6L0 1.6L0 0Z" transform="translate(0.8 40.8)" id="Rectangle" fill="#000000" stroke="none" />
        <path d="M0 0L1.6 0L1.6 6L0 6L0 0Z" transform="translate(25.6 39.2)" id="Rectangle" fill="#000000" stroke="none" />
        <path d="M0 0L6 0L6 1.6L0 1.6L0 0Z" transform="translate(26.4 40.8)" id="Rectangle" fill="#000000" stroke="none" />
        <path d="M0 0L1.6 0L1.6 15.2L0 15.2L0 0Z" transform="translate(11.2 30)" id="Rectangle" fill="#000000" stroke="none" />
        <path d="M0 0L1.6 0L1.6 15.2L0 15.2L0 0Z" transform="translate(20.4 30)" id="Rectangle" fill="#000000" stroke="none" />
        <path d="M5.2 7.6L0.742816 7.6C0.504374 7.6 0.280035 7.48656 0.140312 7.29429C0.000677072 7.10202 -0.0371916 6.8545 0.0377622 6.63047L2.26635 0L3.67559 0.466377L1.77319 6.12653L5.2 6.12653L5.2 7.6Z" transform="translate(6.8 30)" id="Path" fill="#000000" stroke="none" />
        <path d="M4.45775 7.6L0 7.6L0 6.12668L3.42655 6.12668L1.52382 0.46633L2.93245 0L5.16133 6.62979C5.23786 6.85449 5.1992 7.10199 5.05955 7.29354C4.92059 7.48657 4.69622 7.6 4.45775 7.6Z" transform="translate(21.2 30)" id="Path" fill="#000000" stroke="none" />
        <path d="M0 1.2C0 1.86159 0.538406 2.4 1.2 2.4C1.86159 2.4 2.4 1.86159 2.4 1.2C2.4 0.538406 1.86159 0 1.2 0C0.538406 0 0 0.538406 0 1.2ZM0.799969 1.20009C0.799969 0.980062 0.979219 0.800062 1.2 0.800062C1.42088 0.800062 1.60003 0.980062 1.60003 1.20009C1.60003 1.42013 1.42078 1.60012 1.2 1.60012C0.979125 1.60012 0.799969 1.42013 0.799969 1.20009Z" transform="translate(8.4 39.2)" id="Shape" fill="#000000" fill-rule="evenodd" stroke="none" />
      </g>
    </g>
  </g>
</svg>