<svg xmlns="http://www.w3.org/2000/svg" width="22" height="22" viewBox="0 0 22 22"><path d="M11 22C17.1 22 22 17.1 22 11 22 4.9 17.1 0 11 0 4.9 0 0 4.9 0 11 0 17.1 4.9 22 11 22Z" fill="#51A3FF"/><path d="M16.4 8.9C16.4 10.4 15.8 11.8 14.8 12.8 14.1 13.4 13.7 14.3 13.7 15.2L13.7 16 8.1 16 8.1 15.2C8.1 14.3 7.7 13.4 7.1 12.8 5.9 11.6 5.3 9.9 5.6 8 6 5.6 7.9 3.8 10.3 3.5 13.6 3.2 16.4 5.7 16.4 8.9Z" fill="#EFEFEF"/><path d="M13.7 16L13.7 17C13.7 17.7 13.2 18.3 12.4 18.3L9.4 18.3C8.7 18.3 8.1 17.7 8.1 17L8.1 16 13.7 16Z" fill="#006EE8"/><path d="M8.6 12.8C7.4 11.6 6.7 9.9 7.1 8 7.4 5.7 9.3 3.9 11.7 3.5 11.2 3.5 10.8 3.5 10.3 3.5 7.9 3.8 6 5.6 5.6 8 5.3 9.9 5.9 11.6 7.1 12.8 7.7 13.4 8.1 14.3 8.1 15.2L8.1 16 9.6 16 9.6 15.2C9.6 14.3 9.2 13.4 8.6 12.8Z" fill="#D5DBE1"/><path d="M9.6 17L9.6 16 8.1 16 8.1 17C8.1 17.7 8.7 18.3 9.4 18.3L10.9 18.3C10.2 18.3 9.6 17.7 9.6 17Z" fill="#689FFF"/><path d="M13.7 16.5L8.1 16.5C7.9 16.5 7.6 16.3 7.6 16 7.6 15.7 7.9 15.5 8.1 15.5L13.7 15.5C14 15.5 14.2 15.7 14.2 16 14.2 16.3 14 16.5 13.7 16.5Z"/><path d="M7.6 17C7.6 18 8.4 18.8 9.4 18.8L12.4 18.8C13.4 18.8 14.2 18 14.2 17L14.2 15.2C14.2 14.4 14.5 13.7 15.1 13.1 16.2 12 16.9 10.5 16.9 8.9 16.9 7.2 16.1 5.6 14.9 4.5 13.6 3.4 12 2.8 10.3 3 7.7 3.3 5.5 5.4 5.1 7.9 4.8 9.9 5.4 11.7 6.7 13.1 7.3 13.7 7.6 14.4 7.6 15.2L7.6 17ZM10.4 4C10.6 4 10.7 4 10.9 4 12.2 4 13.3 4.4 14.2 5.2 15.3 6.2 15.9 7.5 15.9 8.9 15.9 10.2 15.4 11.5 14.4 12.4 13.7 13.2 13.2 14.2 13.2 15.2L13.2 17C13.2 17.5 12.9 17.8 12.4 17.8L9.4 17.8C9 17.8 8.6 17.5 8.6 17L8.6 15.2C8.6 14.2 8.2 13.2 7.4 12.4 6.3 11.3 5.8 9.7 6.1 8.1 6.4 6 8.2 4.3 10.4 4Z" fill="#021431"/><path d="M10.4 11.6C10.4 11.6 10.4 11.6 10.3 11.5 10.1 11.5 9.9 11.2 10 11L10.9 6.7C11 6.4 11.3 6.2 11.5 6.3 11.8 6.4 12 6.6 11.9 6.9L10.9 11.2C10.9 11.4 10.7 11.6 10.4 11.6Z"/><path d="M13.1 10.9C12.9 10.9 12.8 10.8 12.7 10.7 12.5 10.5 12.5 10.2 12.7 10L14 8.9 12.7 7.8C12.5 7.6 12.5 7.3 12.7 7.1 12.9 6.9 13.2 6.9 13.4 7.1L15 8.6C15.1 8.7 15.2 8.8 15.2 8.9 15.2 9.1 15.1 9.2 15 9.3L13.4 10.8C13.3 10.9 13.2 10.9 13.1 10.9Z"/><path d="M8.8 10.9C8.7 10.9 8.6 10.9 8.5 10.8L6.8 9.3C6.7 9.2 6.6 9.1 6.6 8.9 6.6 8.8 6.7 8.7 6.8 8.6L8.5 7.1C8.7 6.9 9 6.9 9.2 7.1 9.3 7.3 9.3 7.6 9.1 7.8L7.9 8.9 9.1 10C9.3 10.2 9.3 10.5 9.2 10.7 9.1 10.8 8.9 10.9 8.8 10.9Z"/></svg>