<svg xmlns="http://www.w3.org/2000/svg" width="22" height="22" viewBox="0 0 22 22"><style>.a{fill:#021431;}</style><path d="M21 2.8L21 14.8C21 15.8 20.2 16.6 19.2 16.6L9 16.6 4.6 21 4.6 16.6 2.8 16.6C1.8 16.6 1 15.8 1 14.8L1 2.8C1 1.8 1.8 1 2.8 1L19.2 1C20.2 1 21 1.8 21 2.8Z" fill="#EFEFEF"/><path d="M7.3 12C7.2 12 7 11.9 6.9 11.8L4.2 9.5C4.1 9.4 4 9.2 4 9 4 8.8 4.1 8.6 4.2 8.5L6.9 6.2C7.2 5.9 7.6 6 7.8 6.2 8.1 6.5 8 7 7.8 7.2L5.7 9 7.8 10.8C8 11 8.1 11.5 7.8 11.8 7.7 11.9 7.5 12 7.3 12L7.3 12Z" class="a"/><path d="M13.7 12C13.5 12 13.3 11.9 13.2 11.8 12.9 11.5 13 11 13.2 10.8L15.3 9 13.2 7.2C13 7 12.9 6.5 13.2 6.2 13.4 6 13.8 5.9 14.1 6.2L16.8 8.5C16.9 8.6 17 8.8 17 9 17 9.2 16.9 9.4 16.8 9.5L14.1 11.8C14 11.9 13.8 12 13.7 12L13.7 12Z" class="a"/><path d="M9.6 13C9.6 13 9.5 13 9.5 13 9.1 12.9 8.9 12.5 9 12.1L10.7 5.5C10.8 5.1 11.2 4.9 11.5 5 11.9 5.1 12.1 5.5 12 5.9L10.3 12.5C10.2 12.8 9.9 13 9.6 13Z" class="a"/><path d="M7 19L7 16.6 5.1 16.6C4 16.6 3.2 15.8 3.2 14.8L3.2 2.8C3.2 1.8 4 1 5.1 1L2.9 1C1.9 1 1 1.8 1 2.8L1 14.8C1 15.8 1.9 16.6 2.9 16.6L4.8 16.6 4.8 21 7 19Z" fill="#D5DBE1"/><path d="M4.1 21.9C4.2 22 4.3 22 4.4 22 4.5 22 4.7 21.9 4.8 21.8L9.2 17.4 19.5 17.4C20.9 17.4 22 16.3 22 14.9L22 2.5C22 1.1 20.9 0 19.5 0L2.5 0C1.1 0 0 1.1 0 2.5L0 14.9C0 16.3 1.1 17.4 2.5 17.4L3.7 17.4 3.7 21.3C3.7 21.6 3.8 21.8 4.1 21.9ZM1.4 2.5C1.4 1.9 1.9 1.4 2.5 1.4L19.5 1.4C20.1 1.4 20.6 1.9 20.6 2.5L20.6 14.9C20.6 15.5 20.1 16 19.5 16L8.9 16C8.8 16 8.6 16.1 8.5 16.2L5 19.7 5 16.7C5 16.3 4.7 16 4.4 16L2.5 16C1.9 16 1.4 15.5 1.4 14.9L1.4 2.5Z" class="a"/></svg>