<svg xmlns="http://www.w3.org/2000/svg" width="21" height="19" viewBox="0 0 21 19"><path d="M3 0L18 0C19.7 0 21 1.3 21 2.9L21 12.9C21 14.5 19.7 15.8 18 15.8L9.3 15.8 5.2 18.9C5.1 19 5 19 4.8 19 4.7 19 4.6 19 4.6 18.9 4.3 18.8 4.2 18.6 4.2 18.4L4.2 15.8 3 15.8C1.3 15.8 0 14.5 0 12.9L0 2.9C0 1.3 1.3 0 3 0ZM18 14.5C18.9 14.5 19.7 13.8 19.7 12.9L19.7 12.9 19.7 2.9C19.7 2 18.9 1.3 18 1.3L3 1.3C2.1 1.3 1.3 2 1.3 2.9L1.3 12.9C1.3 13.8 2.1 14.5 3 14.5L4.8 14.5C5.2 14.5 5.4 14.8 5.4 15.2L5.5 17.1 8.7 14.7C8.8 14.6 8.9 14.5 9.1 14.5L18 14.5Z" fill="#006EE8"/></svg>